<?xml version="1.0" encoding="UTF-8"?>
<svg width="450px" height="570px" viewBox="0 0 450 570" version="1.1" xmlns="http://www.w3.org/2000/svg" xmlns:xlink="http://www.w3.org/1999/xlink">
    <!-- Generator: Sketch 47.1 (45422) - http://www.bohemiancoding.com/sketch -->
    <title>Artboard</title>
    <desc>Created with Sketch.</desc>
    <defs>
        <circle id="path-1" cx="5" cy="10" r="2"></circle>
        <circle id="path-2" cx="14" cy="10" r="2"></circle>
        <path d="M13.5407458,13.8708525 C13.4537386,13.819414 13.3498542,13.8076835 13.2536301,13.8373757 C12.708094,14.005722 12.1194843,14.0975168 11.5057229,14.0975168 C8.67210964,14.0975168 6.375,12.1409276 6.375,9.72732982 C6.375,7.31375293 8.67210964,5.35714286 11.5057229,5.35714286 C14.3393361,5.35714286 16.6364458,7.31375293 16.6364458,9.72732982 C16.6364458,11.0604878 15.9356157,12.254197 14.8306771,13.0557813 C14.7420313,13.1201004 14.7017843,13.2338089 14.729353,13.3412026 L14.9708759,14.2818174 C15.0431976,14.5634331 14.9004386,14.674486 14.6536518,14.5286389 L13.5407458,13.8708525 L13.5407458,13.8708525 Z" id="path-3"></path>
    </defs>
    <g id="官网" stroke="none" stroke-width="1" fill="none" fill-rule="evenodd">
        <g id="Artboard">
            <g id="Group-2" transform="translate(0.000000, 166.000000)">
                <circle id="Oval" fill="#5CDF97" cx="30" cy="30" r="30"></circle>
                <path d="M24.21875,42.9999382 C23.64375,42.9999382 23.06825,42.7809382 22.62875,42.3419382 L12.66025,32.3879382 C11.78075,31.5099382 11.77975,30.0854382 12.65775,29.2059382 C13.53575,28.3269382 14.96075,28.3259382 15.83975,29.2039382 L24.21875,37.5704382 L44.16025,17.6584382 C45.03925,16.7794382 46.46375,16.7809382 47.34225,17.6604382 C48.22025,18.5399382 48.21925,19.9644382 47.33975,20.8424382 L25.80875,42.3419382 C25.36925,42.7809382 24.79375,42.9999382 24.21875,42.9999382" id="checkmark" fill="#FFFFFF"></path>
            </g>
            <g id="Group-8" transform="translate(252.000000, 171.000000)" stroke="#CCD8E6" stroke-width="2" stroke-linecap="round">
                <path d="M0,25 L50,25" id="Line-5"></path>
                <path d="M25,0 L25,50" id="Line-5-Copy"></path>
            </g>
            <g id="Group" transform="translate(230.000000, 271.000000)" stroke="#3C90EF">
                <path d="M16,13.2 C16,14.5256 14.8062222,15.6 13.3333333,15.6 L2.66666667,15.6 C1.19377778,15.6 0,14.5256 0,13.2 L0,2.4 C0,1.0744 1.19377778,0 2.66666667,0 L13.3333333,0 C14.8062222,0 16,1.0744 16,2.4 L16,13.2 L16,13.2 Z" id="Shape"></path>
                <path d="M12,2.4 L9.33333333,2.4 C8.59688889,2.4 8,2.9372 8,3.6 L8,6 C8,6.6628 8.59688889,7.2 9.33333333,7.2 L12,7.2 C12.7364444,7.2 13.3333333,6.6628 13.3333333,6 L13.3333333,3.6 C13.3333333,2.9372 12.7364444,2.4 12,2.4 Z" id="Shape"></path>
                <path d="M2.66666667,2.4 L5.33333333,2.4" id="Shape"></path>
                <path d="M2.66666667,3 L5.66666667,3" id="Shape"></path>
                <path d="M2.66666667,5 L5.66666667,5" id="Shape"></path>
                <path d="M2.66666667,7 L5.66666667,7" id="Shape-Copy"></path>
                <path d="M2.66666667,10.6 L12.5,10.6" id="Shape"></path>
                <path d="M2.66666667,13.2 L12.5,13.2" id="Shape"></path>
            </g>
            <g id="Group" transform="translate(305.000000, 271.000000)" stroke="#384450">
                <path d="M13.882,0 L2.9256,0 C1.3164,0 0,1.35015385 0,3.00061538 L0,10.2564103 C0,11.616 1.0744,12.7179487 2.4,12.7179487 L4.4,12.7179487 L7.1584,15.5470769 C7.6232,16.0237949 8.3768,16.0237949 8.8416,15.5470769 L11.6,12.7179487 L13.6,12.7179487 C14.9256,12.7179487 16,11.616 16,10.2564103 L16,2.17230769 C16,0.972717949 15.0516,0 13.882,0 L13.882,0 Z" id="Shape"></path>
                <path d="M4,5 L12,5" id="Shape"></path>
                <path d="M4,8 L12,8" id="Shape"></path>
            </g>
            <g id="Group-10-Copy-2" transform="translate(381.000000, 271.000000)" stroke="#384450" stroke-linecap="square">
                <path d="M0.666666667,0.666666667 L15.7516113,15.7516113" id="Line-5"></path>
                <path d="M0.666666667,0.666666667 L15.7516113,15.7516113" id="Line-5-Copy" transform="translate(8.209139, 8.209139) scale(-1, 1) translate(-8.209139, -8.209139) "></path>
            </g>
            <g id="Group-2" transform="translate(91.000000, 166.000000)">
                <circle id="Oval" fill="#FE5462" cx="30" cy="30" r="30"></circle>
                <rect id="Rectangle-21" fill="#FFFFFF" transform="translate(30.000000, 30.500000) rotate(45.000000) translate(-30.000000, -30.500000) " x="28" y="12" width="4" height="37" rx="2"></rect>
                <rect id="Rectangle-21-Copy" fill="#FFFFFF" transform="translate(30.000000, 30.500000) scale(-1, 1) rotate(45.000000) translate(-30.000000, -30.500000) " x="28" y="12" width="4" height="37" rx="2"></rect>
            </g>
            <g id="Group-Copy-2" transform="translate(268.000000, 271.000000)" stroke="#97A2AE">
                <path d="M16,13.2 C16,14.5256 14.8062222,15.6 13.3333333,15.6 L2.66666667,15.6 C1.19377778,15.6 0,14.5256 0,13.2 L0,2.4 C0,1.0744 1.19377778,0 2.66666667,0 L13.3333333,0 C14.8062222,0 16,1.0744 16,2.4 L16,13.2 L16,13.2 Z" id="Shape"></path>
                <g id="Group" transform="translate(4.000000, 4.000000)">
                    <path d="M8,4 C8,6.2092 6.2092,8 4,8 C1.7908,8 0,6.2092 0,4 C0,1.7908 1.7908,0 4,0 C6.2092,0 8,1.7908 8,4 L8,4 Z" id="Shape"></path>
                    <path d="M4,1.33333333 L4,4.03333333 C4,4.19893333 4.1344,4.33333333 4.3,4.33333333 L6.6,4.33333333" id="Shape"></path>
                </g>
            </g>
            <g id="Group-4" transform="translate(343.000000, 273.000000)">
                <rect id="Rectangle-3" stroke="#384450" x="0" y="0" width="10" height="10" rx="1"></rect>
                <path d="M11,3 L14,3 L17,5.5 L17,9 L17,9 C17,9.55228475 16.5522847,10 16,10 L11,10 L11,10 C10.4477153,10 10,9.55228475 10,9 L10,4 L10,4 C10,3.44771525 10.4477153,3 11,3 Z" id="Rectangle-3-Copy" stroke="#384450" stroke-linejoin="round"></path>
                <g id="Oval-4">
                    <use fill="#FFFFFF" fill-rule="evenodd" xlink:href="#path-1"></use>
                    <circle stroke="#384450" stroke-width="1" cx="5" cy="10" r="1.5"></circle>
                </g>
                <g id="Oval-4-Copy">
                    <use fill="#FFFFFF" fill-rule="evenodd" xlink:href="#path-2"></use>
                    <circle stroke="#384450" stroke-width="1" cx="14" cy="10" r="1.5"></circle>
                </g>
            </g>
            <g id="Group-2" transform="translate(182.000000, 176.000000)">
                <circle id="Oval" fill="#3C90EF" cx="20" cy="20" r="20"></circle>
                <path d="M16.1458333,28.6666254 C15.7625,28.6666254 15.3788333,28.5206254 15.0858333,28.2279588 L8.44016667,21.5919588 C7.85383333,21.0066254 7.85316667,20.0569588 8.4385,19.4706254 C9.02383333,18.8846254 9.97383333,18.8839588 10.5598333,19.4692921 L16.1458333,25.0469588 L29.4401667,11.7722921 C30.0261667,11.1862921 30.9758333,11.1872921 31.5615,11.7736254 C32.1468333,12.3599588 32.1461667,13.3096254 31.5598333,13.8949588 L17.2058333,28.2279588 C16.9128333,28.5206254 16.5291667,28.6666254 16.1458333,28.6666254" id="checkmark" fill="#FFFFFF"></path>
            </g>
            <path d="M339.805232,197.209804 L339.805232,197.209833 C342.392829,196.954333 344.788705,197.941858 347.61514,199.321558 C345.627806,201.9129 343.097126,203.532175 340.565399,203.532175 C336.209353,203.532175 334.921197,200.100338 337.074106,198.224046 C337.792275,197.589175 339.105531,197.279192 339.805232,197.209804 Z M356.053464,199.581113 L356.053522,199.5812 C354.9335,199.206438 353.429541,198.632262 351.754888,198.026704 C352.761105,196.278396 353.563821,194.286954 354.091811,192.123808 L348.572699,192.123808 L348.572699,190.135983 L355.33384,190.135983 L355.33384,189.026133 L348.572699,189.026133 L348.572699,185.712013 L345.81339,185.712013 C345.328968,185.712013 345.328968,186.190083 345.328968,186.190083 L345.328968,189.026133 L338.490929,189.026133 L338.490929,190.135983 L345.328968,190.135983 L345.328968,192.123808 L339.683225,192.123808 L339.683225,193.233133 L350.633295,193.233133 C350.232402,194.613883 349.694699,195.909817 349.056016,197.087508 C345.503239,195.914979 341.711538,194.964467 339.33003,195.549462 C337.807108,195.925217 336.825991,196.595554 336.24882,197.296196 C333.603841,200.514679 335.500927,205.403333 341.087717,205.403333 C344.390866,205.403333 347.573084,203.560963 350.039169,200.527017 C353.717035,202.295363 361,205.331379 361,205.331379 L361,205.514896 C361,207.992108 358.994227,210 356.516334,210 L337.485207,210 C335.00682,210 333,207.991613 333,205.514896 L333,186.485629 C333,184.007921 335.00682,182 337.485207,182 L356.516334,182 C358.994227,182 361,184.007892 361,186.485629 L361,201.004038 C361,201.004038 360.085543,200.931529 356.053464,199.581113 Z" id="Icon" fill="#FFFFFF"></path>
            <g id="Group-Copy-2" transform="translate(191.000000, 270.000000)" stroke="#8D99A6">
                <path d="M17.5,9 C17.5,4.30544237 13.6945576,0.5 9,0.5 C4.30544237,0.5 0.5,4.30544237 0.5,9 C0.5,13.6945576 4.30544237,17.5 9,17.5 C13.6945576,17.5 17.5,13.6945576 17.5,9 Z" id="Shape"></path>
                <path d="M9,2.25 L9,8.325 C9,8.6976 9.3024,9 9.675,9 L14.85,9" id="Shape"></path>
            </g>
            <g id="Group-Copy-4" transform="translate(151.000000, 270.000000)" stroke="#3C90EF">
                <path d="M17.5,9 C17.5,4.30544237 13.6945576,0.5 9,0.5 C4.30544237,0.5 0.5,4.30544237 0.5,9 C0.5,13.6945576 4.30544237,17.5 9,17.5 C13.6945576,17.5 17.5,13.6945576 17.5,9 Z" id="Shape"></path>
                <path d="M9,2.25 L9,8.325 C9,8.6976 9.3024,9 9.675,9 L14.85,9" id="Shape"></path>
            </g>
            <g id="Group-Copy-3" transform="translate(76.000000, 269.000000)" stroke="#3C90EF">
                <path d="M15.7473684,15.7473684 C15.7473684,17.2822737 14.5033263,18.5263158 12.9684211,18.5263158 L2.77894737,18.5263158 C1.24404211,18.5263158 0,17.2822737 0,15.7473684 L0,2.77894737 C0,1.24404211 1.24404211,0 2.77894737,0 L12.9684211,0 C14.5033263,0 15.7473684,1.24404211 15.7473684,2.77894737 L15.7473684,15.7473684 L15.7473684,15.7473684 Z" id="Shape"></path>
                <path d="M0.463157895,14.8210526 L15.4631579,14.8210526" id="Shape"></path>
                <path d="M6.48421053,16.6736842 L9.48421053,16.6736842" id="Shape"></path>
            </g>
            <g id="Group-Copy-5" transform="translate(114.000000, 269.000000)" stroke="#8D99A6">
                <path d="M15.7473684,15.7473684 C15.7473684,17.2822737 14.5033263,18.5263158 12.9684211,18.5263158 L2.77894737,18.5263158 C1.24404211,18.5263158 0,17.2822737 0,15.7473684 L0,2.77894737 C0,1.24404211 1.24404211,0 2.77894737,0 L12.9684211,0 C14.5033263,0 15.7473684,1.24404211 15.7473684,2.77894737 L15.7473684,15.7473684 L15.7473684,15.7473684 Z" id="Shape"></path>
                <path d="M0.463157895,14.8210526 L15.4631579,14.8210526" id="Shape"></path>
                <path d="M6.48421053,16.6736842 L9.48421053,16.6736842" id="Shape"></path>
            </g>
            <g id="Group" transform="translate(40.000000, 271.000000)" stroke="#3C90EF">
                <path d="M14.1666667,13.4736842 C14.1666667,14.7869721 13.1133333,15.8513932 11.8137255,15.8513932 L3.18627451,15.8513932 C1.88666667,15.8513932 0.833333333,14.7869721 0.833333333,13.4736842 L0.833333333,2.37770898 C0.833333333,1.06442105 1.88666667,0 3.18627451,0 L11.8137255,0 C13.1133333,0 14.1666667,1.06442105 14.1666667,2.37770898 L14.1666667,13.4736842 L14.1666667,13.4736842 Z" id="Shape"></path>
                <path d="M0.411608261,12.6811146 L13.7745098,12.6811146" id="Shape"></path>
                <path d="M5.72670862,14.3157895 L9.01960784,14.3157895" id="Shape"></path>
            </g>
            <g id="Group-9" transform="translate(1.000000, 271.000000)">
                <path d="M3.94700527,10.6509359 L2.62987944,11.4360347 C1.94892661,11.8419696 1.31903522,11.3509663 1.51878135,10.5900604 L1.78743886,9.56665731 C0.349078558,8.48832226 -0.5,6.92589062 -0.5,5.23795136 C-0.5,2.04926224 2.50047278,-0.5 6.16506024,-0.5 C9.44060069,-0.5 12.2335375,1.54770982 12.7470312,4.32898614 L12.8615687,4.9493648 L12.2314273,4.91919235 C12.1315302,4.91440907 12.0312779,4.91200694 11.9307229,4.91200694 C9.07353639,4.91200694 6.78795181,6.84305398 6.78795181,9.17948363 C6.78795181,9.56609961 6.84996534,9.94548237 6.97119304,10.3110974 L7.17910912,10.9381592 L6.5191485,10.9679501 C6.40172647,10.9732506 6.28368739,10.9759027 6.16506024,10.9759027 C5.40083342,10.9759027 4.65352309,10.8652044 3.94700527,10.6509359 Z" id="Path" stroke="#3C90EF"></path>
                <g id="Path">
                    <use fill="#FFFFFF" fill-rule="evenodd" xlink:href="#path-3"></use>
                    <path stroke="#3C90EF" stroke-width="1" d="M13.3407177,14.3334316 C12.755284,14.5075971 12.1372849,14.5975168 11.5057229,14.5975168 C8.41216153,14.5975168 5.875,12.4364485 5.875,9.72732982 C5.875,7.01822522 8.41216972,4.85714286 11.5057229,4.85714286 C14.5992761,4.85714286 17.1364458,7.01822522 17.1364458,9.72732982 C17.1364458,11.1421925 16.4370922,12.4521718 15.2517389,13.3652165 L15.4551612,14.1574481 C15.6369507,14.8653237 15.0341619,15.3343033 14.3992413,14.959075 L13.3407177,14.3334316 Z"></path>
                </g>
                <path d="M13.8125,9.64285714 C14.3993125,9.64285714 14.875,9.16317227 14.875,8.57142857 C14.875,7.97971639 14.3993125,7.5 13.8125,7.5 C13.2256875,7.5 12.75,7.97971639 12.75,8.57142857 C12.75,9.16317227 13.2256875,9.64285714 13.8125,9.64285714 L13.8125,9.64285714 Z" id="Path" fill="#3C90EF"></path>
                <path d="M9.5625,9.64285714 C10.1493125,9.64285714 10.625,9.16317227 10.625,8.57142857 C10.625,7.97971639 10.1493125,7.5 9.5625,7.5 C8.9756875,7.5 8.5,7.97971639 8.5,8.57142857 C8.5,9.16317227 8.9756875,9.64285714 9.5625,9.64285714 L9.5625,9.64285714 Z" id="Path" fill="#3C90EF"></path>
                <path d="M8.5,4.28571429 C9.08679219,4.28571429 9.5625,3.80603571 9.5625,3.21428571 C9.5625,2.6225625 9.08679219,2.14285714 8.5,2.14285714 C7.91318125,2.14285714 7.4375,2.6225625 7.4375,3.21428571 C7.4375,3.80603571 7.91318125,4.28571429 8.5,4.28571429 L8.5,4.28571429 Z" id="Path" fill="#3C90EF"></path>
                <path d="M3.1875,4.28571429 C3.77429219,4.28571429 4.25,3.80603571 4.25,3.21428571 C4.25,2.6225625 3.77429219,2.14285714 3.1875,2.14285714 C2.60070781,2.14285714 2.125,2.6225625 2.125,3.21428571 C2.125,3.80603571 2.60070781,4.28571429 3.1875,4.28571429 L3.1875,4.28571429 Z" id="Path" fill="#3C90EF"></path>
            </g>
            <g id="Group-11" transform="translate(218.000000, 85.000000)">
                <g id="Group-10">
                    <path d="M14,5 L27.0086957,5 L27.0086957,5 C31.2540845,5 34.6956522,8.98429298 34.6956522,13.8991674 L34.6956522,28.2747456 L34.6956522,28.2747456 C34.6956522,33.1896201 31.2540845,37.173913 27.0086957,37.173913 L14,37.173913 L14,37.173913" id="Rectangle-9" stroke="#5CDF97" stroke-width="2.2"></path>
                    <rect id="Rectangle-7-Copy" stroke="#5CDF97" stroke-width="2.2" fill="#FFFFFF" x="8.69565217" y="18.2608696" width="8.69565217" height="8.69565217" rx="1"></rect>
                    <rect id="Rectangle-7" stroke="#5CDF97" stroke-width="2" fill="#FFFFFF" x="5.2173913" y="0" width="15.6521739" height="21.7391304" rx="1"></rect>
                    <rect id="Rectangle-10-Copy" fill="#5CDF97" x="6" y="8" width="14" height="2"></rect>
                    <rect id="Rectangle-7-Copy-2" stroke="#5CDF97" stroke-width="2" fill="#FFFFFF" transform="translate(13.478261, 36.913043) rotate(90.000000) translate(-13.478261, -36.913043) " x="10.4347826" y="23.4347826" width="6.08695652" height="26.9565217" rx="1"></rect>
                    <rect id="Rectangle-10" fill="#5CDF97" x="5" y="30" width="17" height="2" rx="1"></rect>
                </g>
            </g>
            <g id="Group-11-Copy" transform="translate(218.000000, 13.000000)">
                <g id="Group-10">
                    <path d="M14,5 L27.0086957,5 L27.0086957,5 C31.2540845,5 34.6956522,8.98429298 34.6956522,13.8991674 L34.6956522,28.2747456 L34.6956522,28.2747456 C34.6956522,33.1896201 31.2540845,37.173913 27.0086957,37.173913 L14,37.173913 L14,37.173913" id="Rectangle-9" stroke="#8D99A6" stroke-width="2.2"></path>
                    <rect id="Rectangle-7-Copy" stroke="#8D99A6" stroke-width="2.2" fill="#FFFFFF" x="8.69565217" y="18.2608696" width="8.69565217" height="8.69565217" rx="1"></rect>
                    <rect id="Rectangle-7" stroke="#8D99A6" stroke-width="2" fill="#FFFFFF" x="5.2173913" y="0" width="15.6521739" height="21.7391304" rx="1"></rect>
                    <rect id="Rectangle-10-Copy" fill="#8D99A6" x="6" y="8" width="14" height="2"></rect>
                    <rect id="Rectangle-7-Copy-2" stroke="#8D99A6" stroke-width="2" fill="#FFFFFF" transform="translate(13.478261, 36.913043) rotate(90.000000) translate(-13.478261, -36.913043) " x="10.4347826" y="23.4347826" width="6.08695652" height="26.9565217" rx="1"></rect>
                    <rect id="Rectangle-10" fill="#8D99A6" x="5" y="30" width="17" height="2" rx="1"></rect>
                </g>
            </g>
            <path d="M321.972029,88.1975691 C322.542099,88.1975691 323.008519,88.6629834 322.999882,89.2318232 L322.999882,116.674033 C322.999882,120.716243 319.709026,124 315.658077,124 L290.341805,124 C286.290856,124 283,120.716243 283,116.674033 L283,86.0342541 C283,85.4654144 283.466421,85 284.03649,85 L316.452719,85 C317.022789,85 317.489209,85.4654144 317.489209,86.0342541 L317.489209,113.700552 C317.489209,114.269392 317.022789,114.734807 316.452719,114.734807 C315.88265,114.734807 315.416229,114.269392 315.416229,113.700552 L315.416229,87.0685083 L285.07298,87.0685083 L285.07298,116.682652 C285.07298,119.578564 287.430995,121.94011 290.341805,121.94011 L315.666714,121.94011 C318.568887,121.94011 320.935539,119.587182 320.935539,116.682652 L320.935539,89.2318232 C320.935539,88.6629834 321.40196,88.1975691 321.972029,88.1975691 Z M311.443017,93.0327072 L288.847532,93.0327072 C288.277462,93.0327072 287.811042,92.5672928 287.811042,91.998453 C287.811042,91.4296133 288.277462,90.9641989 288.847532,90.9641989 L311.443017,90.9641989 C312.013086,90.9641989 312.479507,91.4296133 312.479507,91.998453 C312.479507,92.5672928 312.013086,93.0327072 311.443017,93.0327072 Z M311.443017,112.045746 C312.013086,112.045746 312.47087,112.51116 312.47087,113.08 C312.47087,113.64884 312.004449,114.114254 311.434379,114.114254 L288.847532,114.114254 C288.277462,114.114254 287.811042,113.64884 287.811042,113.08 C287.811042,112.51116 288.277462,112.045746 288.847532,112.045746 L311.443017,112.045746 Z M311.443017,117.346298 C312.013086,117.346298 312.479507,117.811713 312.479507,118.380552 C312.479507,118.949392 312.013086,119.414807 311.443017,119.414807 L292.43206,119.414807 C291.861991,119.414807 291.39557,118.949392 291.39557,118.380552 C291.39557,117.811713 291.861991,117.346298 292.43206,117.346298 L311.443017,117.346298 Z M287.465545,96.6439779 C287.465545,96.0751381 287.931966,95.6097238 288.502035,95.6097238 L299.756591,95.6097238 C300.32666,95.6097238 300.793081,96.0751381 300.793081,96.6439779 L300.793081,107.83116 C300.793081,108.4 300.32666,108.865414 299.756591,108.865414 L288.502035,108.865414 C287.931966,108.865414 287.465545,108.4 287.465545,107.83116 L287.465545,96.6439779 Z M289.538525,97.678232 L289.538525,106.796906 L298.7201,106.796906 L298.7201,97.678232 L289.538525,97.678232 Z M311.995812,96.6439779 C312.574519,96.6439779 313.032302,97.1093923 313.032302,97.678232 C313.032302,98.2470718 312.565881,98.7124862 311.995812,98.7124862 L304.54172,98.7124862 C303.97165,98.7124862 303.50523,98.2470718 303.50523,97.678232 C303.50523,97.1093923 303.97165,96.6439779 304.54172,96.6439779 L311.995812,96.6439779 Z M311.995812,101.315359 C312.574519,101.315359 313.032302,101.780773 313.032302,102.349613 C313.032302,102.918453 312.565881,103.383867 311.995812,103.383867 L304.54172,103.383867 C303.97165,103.383867 303.50523,102.918453 303.50523,102.349613 C303.50523,101.780773 303.97165,101.315359 304.54172,101.315359 L311.995812,101.315359 Z M313.032302,107.314033 C313.032302,107.882873 312.574519,108.348287 311.995812,108.348287 L304.54172,108.348287 C303.97165,108.348287 303.50523,107.882873 303.50523,107.314033 C303.50523,106.745193 303.97165,106.279779 304.54172,106.279779 L311.995812,106.279779 C312.565881,106.279779 313.032302,106.745193 313.032302,107.314033 Z" id="newspaper" fill="#5CDF97"></path>
            <path d="M321.972029,16.1975691 C322.542099,16.1975691 323.008519,16.6629834 322.999882,17.2318232 L322.999882,44.6740331 C322.999882,48.7162431 319.709026,52 315.658077,52 L290.341805,52 C286.290856,52 283,48.7162431 283,44.6740331 L283,14.0342541 C283,13.4654144 283.466421,13 284.03649,13 L316.452719,13 C317.022789,13 317.489209,13.4654144 317.489209,14.0342541 L317.489209,41.7005525 C317.489209,42.2693923 317.022789,42.7348066 316.452719,42.7348066 C315.88265,42.7348066 315.416229,42.2693923 315.416229,41.7005525 L315.416229,15.0685083 L285.07298,15.0685083 L285.07298,44.6826519 C285.07298,47.5785635 287.430995,49.9401105 290.341805,49.9401105 L315.666714,49.9401105 C318.568887,49.9401105 320.935539,47.5871823 320.935539,44.6826519 L320.935539,17.2318232 C320.935539,16.6629834 321.40196,16.1975691 321.972029,16.1975691 Z M311.443017,21.0327072 L288.847532,21.0327072 C288.277462,21.0327072 287.811042,20.5672928 287.811042,19.998453 C287.811042,19.4296133 288.277462,18.9641989 288.847532,18.9641989 L311.443017,18.9641989 C312.013086,18.9641989 312.479507,19.4296133 312.479507,19.998453 C312.479507,20.5672928 312.013086,21.0327072 311.443017,21.0327072 Z M311.443017,40.0457459 C312.013086,40.0457459 312.47087,40.5111602 312.47087,41.08 C312.47087,41.6488398 312.004449,42.1142541 311.434379,42.1142541 L288.847532,42.1142541 C288.277462,42.1142541 287.811042,41.6488398 287.811042,41.08 C287.811042,40.5111602 288.277462,40.0457459 288.847532,40.0457459 L311.443017,40.0457459 Z M311.443017,45.3462983 C312.013086,45.3462983 312.479507,45.8117127 312.479507,46.3805525 C312.479507,46.9493923 312.013086,47.4148066 311.443017,47.4148066 L292.43206,47.4148066 C291.861991,47.4148066 291.39557,46.9493923 291.39557,46.3805525 C291.39557,45.8117127 291.861991,45.3462983 292.43206,45.3462983 L311.443017,45.3462983 Z M287.465545,24.6439779 C287.465545,24.0751381 287.931966,23.6097238 288.502035,23.6097238 L299.756591,23.6097238 C300.32666,23.6097238 300.793081,24.0751381 300.793081,24.6439779 L300.793081,35.8311602 C300.793081,36.4 300.32666,36.8654144 299.756591,36.8654144 L288.502035,36.8654144 C287.931966,36.8654144 287.465545,36.4 287.465545,35.8311602 L287.465545,24.6439779 Z M289.538525,25.678232 L289.538525,34.7969061 L298.7201,34.7969061 L298.7201,25.678232 L289.538525,25.678232 Z M311.995812,24.6439779 C312.574519,24.6439779 313.032302,25.1093923 313.032302,25.678232 C313.032302,26.2470718 312.565881,26.7124862 311.995812,26.7124862 L304.54172,26.7124862 C303.97165,26.7124862 303.50523,26.2470718 303.50523,25.678232 C303.50523,25.1093923 303.97165,24.6439779 304.54172,24.6439779 L311.995812,24.6439779 Z M311.995812,29.3153591 C312.574519,29.3153591 313.032302,29.7807735 313.032302,30.3496133 C313.032302,30.918453 312.565881,31.3838674 311.995812,31.3838674 L304.54172,31.3838674 C303.97165,31.3838674 303.50523,30.918453 303.50523,30.3496133 C303.50523,29.7807735 303.97165,29.3153591 304.54172,29.3153591 L311.995812,29.3153591 Z M313.032302,35.3140331 C313.032302,35.8828729 312.574519,36.3482873 311.995812,36.3482873 L304.54172,36.3482873 C303.97165,36.3482873 303.50523,35.8828729 303.50523,35.3140331 C303.50523,34.7451934 303.97165,34.279779 304.54172,34.279779 L311.995812,34.279779 C312.565881,34.279779 313.032302,34.7451934 313.032302,35.3140331 Z" id="newspaper-copy" fill="#8D99A6"></path>
            <path d="M186.98166,93.3731532 C186.98166,93.2059941 186.944979,93.038835 186.871619,92.8809624 C186.724897,92.5652174 186.440624,92.3516252 186.12884,92.2866188 L167.449335,83.1114394 C167.146722,82.9628535 166.789088,82.9628535 166.486474,83.1114394 L147.623567,92.3701984 C147.256763,92.5466442 147.01834,92.9181089 147,93.3360068 L147,93.3452934 L147,93.3824398 L147,116.61756 C147,117.044745 147.238423,117.434783 147.623567,117.620515 L166.486474,126.879274 C166.495644,126.879274 166.495644,126.879274 166.504814,126.888561 C166.532325,126.897847 166.559835,126.907134 166.587345,126.925707 C166.596515,126.925707 166.605685,126.934994 166.624026,126.934994 C166.651536,126.94428 166.679046,126.953567 166.706557,126.962854 C166.715727,126.962854 166.724897,126.97214 166.734067,126.97214 C166.761577,126.981427 166.798258,126.981427 166.825768,126.990713 L166.853278,126.990713 C166.889959,126.990713 166.935809,127 166.97249,127 C167.00917,127 167.055021,127 167.091701,126.990713 L167.119211,126.990713 C167.146722,126.990713 167.183402,126.981427 167.210912,126.97214 C167.220083,126.97214 167.229253,126.962854 167.238423,126.962854 C167.265933,126.953567 167.293443,126.94428 167.320954,126.934994 C167.330124,126.934994 167.339294,126.925707 167.357634,126.925707 C167.385144,126.91642 167.412655,126.907134 167.440165,126.888561 C167.449335,126.888561 167.449335,126.888561 167.458505,126.879274 L186.376433,117.592655 C186.752407,117.406923 187,117.016885 187,116.5897 L187,93.4010131 C186.98166,93.3917265 186.98166,93.3824398 186.98166,93.3731532 L186.98166,93.3731532 Z M166.96332,85.3495146 L183.322788,93.3824398 L177.298028,96.3448713 L160.93856,88.311946 L166.96332,85.3495146 L166.96332,85.3495146 Z M166.96332,101.415365 L150.603851,93.3824398 L158.416781,89.5470663 L174.776249,97.5799916 L166.96332,101.415365 L166.96332,101.415365 Z M149.200825,95.1747573 L165.862907,103.356268 L165.862907,124.093288 L149.200825,115.911777 L149.200825,95.1747573 L149.200825,95.1747573 Z M168.063732,124.093288 L168.063732,103.356268 L175.885832,99.5116083 L175.885832,104.934994 C175.885832,105.547911 176.381018,106.049388 176.986245,106.049388 C177.591472,106.049388 178.086657,105.547911 178.086657,104.934994 L178.086657,98.4250739 L184.780834,95.1376108 L184.780834,115.874631 L168.063732,124.093288 L168.063732,124.093288 Z" id="package-6" fill="#5CDF97"></path>
            <path d="M187.981201,21.3731532 C187.981201,21.2059941 187.943604,21.038835 187.868409,20.8809624 C187.718019,20.5652174 187.426639,20.3516252 187.107061,20.2866188 L167.960569,11.1114394 C167.65039,10.9628535 167.283815,10.9628535 166.973636,11.1114394 L147.639156,20.3701984 C147.263182,20.5466442 147.018799,20.9181089 147,21.3360068 L147,21.3452934 L147,21.3824398 L147,44.6175602 C147,45.0447446 147.244383,45.4347826 147.639156,45.620515 L166.973636,54.879274 C166.983035,54.879274 166.983035,54.879274 166.992435,54.8885606 C167.020633,54.8978472 167.048831,54.9071338 167.077029,54.925707 C167.086428,54.925707 167.095828,54.9349937 167.114626,54.9349937 C167.142824,54.9442803 167.171022,54.9535669 167.199221,54.9628535 C167.20862,54.9628535 167.218019,54.9721401 167.227419,54.9721401 C167.255617,54.9814268 167.293214,54.9814268 167.321412,54.9907134 L167.34961,54.9907134 C167.387208,54.9907134 167.434204,55 167.471802,55 C167.509399,55 167.556396,55 167.593994,54.9907134 L167.622192,54.9907134 C167.65039,54.9907134 167.687987,54.9814268 167.716185,54.9721401 C167.725585,54.9721401 167.734984,54.9628535 167.744383,54.9628535 C167.772581,54.9535669 167.800779,54.9442803 167.828978,54.9349937 C167.838377,54.9349937 167.847776,54.925707 167.866575,54.925707 C167.894773,54.9164204 167.922971,54.9071338 167.951169,54.8885606 C167.960569,54.8885606 167.960569,54.8885606 167.969968,54.879274 L187.360844,45.5926551 C187.746217,45.4069228 188,45.0168848 188,44.5897003 L188,21.4010131 C187.981201,21.3917265 187.981201,21.3824398 187.981201,21.3731532 L187.981201,21.3731532 Z M167.462403,13.3495146 L184.230857,21.3824398 L178.055479,24.3448713 L161.287024,16.311946 L167.462403,13.3495146 L167.462403,13.3495146 Z M167.462403,29.4153651 L150.693948,21.3824398 L158.702201,17.5470663 L175.470656,25.5799916 L167.462403,29.4153651 L167.462403,29.4153651 Z M149.255846,23.1747573 L166.33448,31.3562685 L166.33448,52.0932883 L149.255846,43.9117771 L149.255846,23.1747573 L149.255846,23.1747573 Z M168.590326,52.0932883 L168.590326,31.3562685 L176.607978,27.5116083 L176.607978,32.9349937 C176.607978,33.5479105 177.115543,34.0493879 177.735901,34.0493879 C178.356259,34.0493879 178.863824,33.5479105 178.863824,32.9349937 L178.863824,26.4250739 L185.725355,23.1376108 L185.725355,43.8746306 L168.590326,52.0932883 L168.590326,52.0932883 Z" id="package-6-copy" fill="#8D99A6"></path>
            <path d="M114.36854,102.39546 L113.25041,102.39546 L113.25041,95.7335723 C113.25041,93.0095579 111.014151,90.8016726 108.276661,90.8016726 L107.245283,90.8016726 L107.254922,88.3261649 C107.254922,86.4910394 105.751231,85 103.900533,85 L74.0773175,85 C71.8506973,85 70.0289171,86.7777778 70,88.9856631 L70,89.0430108 L70,121.673835 C70,123.508961 71.5036916,125 73.3543888,125 L108.2863,125 C111.033429,125 113.260049,122.782557 113.260049,120.0681 L113.260049,113.396655 L114.378179,113.396655 C115.824036,113.396655 117,112.230585 117,110.796894 L117,104.995221 C116.990361,103.561529 115.814397,102.39546 114.36854,102.39546 L114.36854,102.39546 Z M74.0773175,87.2939068 L103.900533,87.2939068 C104.469237,87.2939068 104.94155,87.7526882 104.94155,88.3166069 L104.931911,90.8016726 L74.0773175,90.8016726 C73.1037736,90.8016726 72.3133716,90.0179211 72.3133716,89.0525687 C72.3133716,88.0872162 73.1037736,87.2939068 74.0773175,87.2939068 L74.0773175,87.2939068 Z M110.937039,120.058542 C110.937039,121.51135 109.741797,122.696535 108.276661,122.696535 L73.3447498,122.696535 C72.7760459,122.696535 72.3037326,122.237754 72.3037326,121.664277 L72.3037326,92.6941458 C72.8435193,92.9522103 73.4411403,93.0955795 74.0773175,93.0955795 L108.276661,93.0955795 C109.741797,93.0955795 110.937039,94.2807646 110.937039,95.7335723 L110.937039,102.39546 L103.042658,102.39546 C101.596801,102.39546 100.420837,103.561529 100.420837,104.995221 L100.420837,110.796894 C100.420837,112.230585 101.596801,113.396655 103.042658,113.396655 L110.937039,113.396655 L110.937039,120.058542 L110.937039,120.058542 Z M114.676989,110.796894 C114.676989,110.968937 114.542043,111.102748 114.36854,111.102748 L103.052297,111.102748 C102.878794,111.102748 102.743847,110.968937 102.743847,110.796894 L102.743847,104.995221 C102.743847,104.832736 102.878794,104.689367 103.052297,104.689367 L114.36854,104.689367 C114.532404,104.689367 114.676989,104.823178 114.676989,104.995221 L114.676989,110.796894 L114.676989,110.796894 L114.676989,110.796894 Z" id="wallet" fill="#5CDF97"></path>
            <path d="M114.36854,30.39546 L113.25041,30.39546 L113.25041,23.7335723 C113.25041,21.0095579 111.014151,18.8016726 108.276661,18.8016726 L107.245283,18.8016726 L107.254922,16.3261649 C107.254922,14.4910394 105.751231,13 103.900533,13 L74.0773175,13 C71.8506973,13 70.0289171,14.7777778 70,16.9856631 L70,17.0430108 L70,49.6738351 C70,51.5089606 71.5036916,53 73.3543888,53 L108.2863,53 C111.033429,53 113.260049,50.7825568 113.260049,48.0681004 L113.260049,41.3966547 L114.378179,41.3966547 C115.824036,41.3966547 117,40.2305854 117,38.7968937 L117,32.995221 C116.990361,31.5615293 115.814397,30.39546 114.36854,30.39546 L114.36854,30.39546 Z M74.0773175,15.2939068 L103.900533,15.2939068 C104.469237,15.2939068 104.94155,15.7526882 104.94155,16.3166069 L104.931911,18.8016726 L74.0773175,18.8016726 C73.1037736,18.8016726 72.3133716,18.0179211 72.3133716,17.0525687 C72.3133716,16.0872162 73.1037736,15.2939068 74.0773175,15.2939068 L74.0773175,15.2939068 Z M110.937039,48.0585424 C110.937039,49.5113501 109.741797,50.6965352 108.276661,50.6965352 L73.3447498,50.6965352 C72.7760459,50.6965352 72.3037326,50.2377539 72.3037326,49.6642772 L72.3037326,20.6941458 C72.8435193,20.9522103 73.4411403,21.0955795 74.0773175,21.0955795 L108.276661,21.0955795 C109.741797,21.0955795 110.937039,22.2807646 110.937039,23.7335723 L110.937039,30.39546 L103.042658,30.39546 C101.596801,30.39546 100.420837,31.5615293 100.420837,32.995221 L100.420837,38.7968937 C100.420837,40.2305854 101.596801,41.3966547 103.042658,41.3966547 L110.937039,41.3966547 L110.937039,48.0585424 L110.937039,48.0585424 Z M114.676989,38.7968937 C114.676989,38.9689367 114.542043,39.1027479 114.36854,39.1027479 L103.052297,39.1027479 C102.878794,39.1027479 102.743847,38.9689367 102.743847,38.7968937 L102.743847,32.995221 C102.743847,32.832736 102.878794,32.6893668 103.052297,32.6893668 L114.36854,32.6893668 C114.532404,32.6893668 114.676989,32.823178 114.676989,32.995221 L114.676989,38.7968937 L114.676989,38.7968937 L114.676989,38.7968937 Z" id="wallet-copy" fill="#8D99A6"></path>
            <path d="M40,123.334713 L40,123.448561 C40,127.06065 36.6735751,130 32.5906736,130 L7.40932642,130 C3.32642487,130 0,127.06065 0,123.448561 L0,123.334713 L2.88082902,90.9087146 C2.94300518,90.2670255 3.48186528,89.7805837 4.12435233,89.7805837 L10.1968912,89.7805837 C10.2072539,84.3883254 14.6010363,80 20,80 C25.3989637,80 29.7927461,84.3883254 29.8031088,89.7805837 L35.8756477,89.7805837 C36.5284974,89.7805837 37.0673575,90.2670255 37.119171,90.9087146 L40,123.334713 Z M20,82.4839578 C15.9689119,82.4839578 12.6943005,85.7545022 12.6839378,89.7805837 L27.3160622,89.7805837 C27.3056995,85.7545022 24.0310881,82.4839578 20,82.4839578 Z M24.0207254,112.984889 C24.507772,112.498448 25.2953368,112.498448 25.7823834,112.974539 C26.2694301,113.460981 26.2694301,114.247568 25.7823834,114.73401 L20.8704663,119.639826 C20.6217617,119.877872 20.3108808,120.00207 19.9896373,120.00207 C19.6683938,120.00207 19.3471503,119.877872 19.1088083,119.639826 L14.2176166,114.754709 C13.7305699,114.268267 13.7305699,113.481681 14.2176166,112.995239 C14.7046632,112.508797 15.492228,112.508797 15.9792746,112.995239 L18.7564767,115.768992 L18.7564767,104.09439 C18.7564767,103.411302 19.3160622,102.852412 20,102.852412 C20.6839378,102.852412 21.2435233,103.411302 21.2435233,104.09439 L21.2435233,115.758642 L24.0207254,112.984889 Z M32.5906736,127.505692 C35.2849741,127.505692 37.4818653,125.715173 37.5129534,123.50031 L34.7357513,92.2645415 L29.8031088,92.2645415 L29.8031088,96.6218174 C29.8031088,97.3049058 29.2435233,97.8637963 28.5595855,97.8637963 C27.8756477,97.8637963 27.3160622,97.3049058 27.3160622,96.6218174 L27.3160622,92.2645415 L12.6839378,92.2645415 L12.6839378,96.6218174 C12.6839378,97.3049058 12.1243523,97.8637963 11.4404145,97.8637963 C10.7564767,97.8637963 10.1968912,97.3049058 10.1968912,96.6218174 L10.1968912,92.2645415 L5.2642487,92.2645415 L2.48704663,123.489961 C2.51813472,125.715173 4.71502591,127.505692 7.40932642,127.505692 L32.5906736,127.505692 Z" id="shopping-bag-3" fill="#5CDF97"></path>
            <path d="M40,51.3347133 L40,51.4485614 C40,55.06065 36.6735751,58 32.5906736,58 L7.40932642,58 C3.32642487,58 0,55.06065 0,51.4485614 L0,51.3347133 L2.88082902,18.9087146 C2.94300518,18.2670255 3.48186528,17.7805837 4.12435233,17.7805837 L10.1968912,17.7805837 C10.2072539,12.3883254 14.6010363,8 20,8 C25.3989637,8 29.7927461,12.3883254 29.8031088,17.7805837 L35.8756477,17.7805837 C36.5284974,17.7805837 37.0673575,18.2670255 37.119171,18.9087146 L40,51.3347133 Z M20,10.4839578 C15.9689119,10.4839578 12.6943005,13.7545022 12.6839378,17.7805837 L27.3160622,17.7805837 C27.3056995,13.7545022 24.0310881,10.4839578 20,10.4839578 Z M24.0207254,40.9848893 C24.507772,40.4984475 25.2953368,40.4984475 25.7823834,40.9745394 C26.2694301,41.4609812 26.2694301,42.2475678 25.7823834,42.7340095 L20.8704663,47.6398261 C20.6217617,47.8778721 20.3108808,48.00207 19.9896373,48.00207 C19.6683938,48.00207 19.3471503,47.8778721 19.1088083,47.6398261 L14.2176166,42.7547092 C13.7305699,42.2682674 13.7305699,41.4816808 14.2176166,40.9952391 C14.7046632,40.5087974 15.492228,40.5087974 15.9792746,40.9952391 L18.7564767,43.7689919 L18.7564767,32.0943904 C18.7564767,31.411302 19.3160622,30.8524115 20,30.8524115 C20.6839378,30.8524115 21.2435233,31.411302 21.2435233,32.0943904 L21.2435233,43.7586421 L24.0207254,40.9848893 Z M32.5906736,55.5056924 C35.2849741,55.5056924 37.4818653,53.7151728 37.5129534,51.5003105 L34.7357513,20.2645415 L29.8031088,20.2645415 L29.8031088,24.6218174 C29.8031088,25.3049058 29.2435233,25.8637963 28.5595855,25.8637963 C27.8756477,25.8637963 27.3160622,25.3049058 27.3160622,24.6218174 L27.3160622,20.2645415 L12.6839378,20.2645415 L12.6839378,24.6218174 C12.6839378,25.3049058 12.1243523,25.8637963 11.4404145,25.8637963 C10.7564767,25.8637963 10.1968912,25.3049058 10.1968912,24.6218174 L10.1968912,20.2645415 L5.2642487,20.2645415 L2.48704663,51.4899607 C2.51813472,53.7151728 4.71502591,55.5056924 7.40932642,55.5056924 L32.5906736,55.5056924 Z" id="shopping-bag-3-copy" fill="#8D99A6"></path>
            <path d="M419.118072,198.940944 C419.887292,198.940944 420.510843,198.307344 420.510843,197.52573 C420.510843,196.744157 419.887292,196.110516 419.118072,196.110516 C418.348853,196.110516 417.725301,196.744157 417.725301,197.52573 C417.725301,198.307344 418.348853,198.940944 419.118072,198.940944 L419.118072,198.940944 Z M412.318072,198.940944 C413.087292,198.940944 413.710843,198.307344 413.710843,197.52573 C413.710843,196.744157 413.087292,196.110516 412.318072,196.110516 C411.548853,196.110516 410.925301,196.744157 410.925301,197.52573 C410.925301,198.307344 411.548853,198.940944 412.318072,198.940944 L412.318072,198.940944 Z M408.426506,190.741027 C409.331439,190.741027 410.06506,189.995626 410.06506,189.07607 C410.06506,188.156555 409.331439,187.411112 408.426506,187.411112 C407.521533,187.411112 406.787952,188.156555 406.787952,189.07607 C406.787952,189.995626 407.521533,190.741027 408.426506,190.741027 L408.426506,190.741027 Z M400.192771,190.741027 C401.097704,190.741027 401.831325,189.995626 401.831325,189.07607 C401.831325,188.156555 401.097704,187.411112 400.192771,187.411112 C399.287839,187.411112 398.554217,188.156555 398.554217,189.07607 C398.554217,189.995626 399.287839,190.741027 400.192771,190.741027 L400.192771,190.741027 Z M419.8086,208.562733 C419.634586,208.460339 419.426817,208.436988 419.234369,208.496094 C418.143296,208.831208 416.966077,209.013937 415.738554,209.013937 C410.071328,209.013937 405.477108,205.119102 405.477108,200.314534 C405.477108,195.510007 410.071328,191.61513 415.738554,191.61513 C421.405781,191.61513 426,195.510007 426,200.314534 C426,202.968351 424.59834,205.344579 422.388463,206.940232 C422.211171,207.068268 422.130677,207.294619 422.185814,207.508399 L422.66886,209.38081 C422.813504,209.941402 422.527986,210.162466 422.034412,209.872139 L419.8086,208.562733 L419.8086,208.562733 Z M400.17446,202.246592 C401.472851,202.639564 402.87193,202.853594 404.33012,202.853594 C404.552595,202.853594 404.773636,202.848641 404.993202,202.838776 C404.721325,202.022655 404.575904,201.16208 404.575904,200.27291 C404.575904,195.031581 409.628631,190.782651 415.861446,190.782651 C416.079373,190.782651 416.295827,190.787854 416.510682,190.798094 C415.586005,185.813169 410.484653,182 404.33012,182 C397.520371,182 392,186.66825 392,192.426797 C392,195.592381 393.668212,198.42847 396.301737,200.340757 C396.549692,200.52078 396.663243,200.837039 396.584347,201.13619 L396.00479,203.33356 C395.829875,203.996754 396.164181,204.256154 396.747711,203.909926 L399.387954,202.343534 C399.62579,202.202429 399.910489,202.166674 400.17446,202.246592 Z" id="WeChat" fill="#FFFFFF"></path>
            <g id="Group-4" transform="translate(1.000000, 319.000000)" stroke="#5CDF97" stroke-width="2" stroke-linecap="round">
                <path d="M0.5,5.5 L90.5055554,5.5" id="Line-4" stroke-dasharray="8"></path>
                <polyline id="Path-5" stroke-linejoin="round" points="93 0 98.5 5.5 93 11"></polyline>
            </g>
            <g id="Group-4-Copy-4" transform="translate(1.000000, 300.000000)" stroke="#8D99A6" stroke-width="2" stroke-linecap="round">
                <path d="M0.5,5.5 L90.5055554,5.5" id="Line-4" stroke-dasharray="8"></path>
                <polyline id="Path-5" stroke-linejoin="round" points="93 0 98.5 5.5 93 11"></polyline>
            </g>
        </g>
    </g>
</svg>